Coordinates
version=1
nRows=21
nColumns=33
inDegrees=yes

Units are S.I. units (second, meters, Newtons, ...)
Angles are in degrees.

endheader
time	ground_thorax_rot_x	ground_thorax_rot_y	ground_thorax_rot_z	ground_thorax_tx	ground_thorax_ty	ground_thorax_tz	clav_prot_r	clav_elev_r	scapula_abduction_r	scapula_elevation_r	scapula_upward_rot_r	scapula_winging_r	shoulder_elv_r	plane_of_elev_r	axial_rot_r	elbow_flexion_r	pro_sup_r	wrist_flex_r	wrist_dev_r	clav_prot_l	clav_elev_l	scapula_abduction_l	scapula_elevation_l	scapula_upward_rot_l	scapula_winging_l	shoulder_elv_l	plane_of_elev_l	axial_rot_l	elbow_flexion_l	pro_sup_l	wrist_flex_l	wrist_dev_l
      3.51000000	     41.01099740	      2.99096014	      9.66632799	   -186.66530440	    857.39657720	     -8.73947091	      3.25612367	     44.19953485	     45.00000000	     45.00000000	      8.18109192	   1326.40881691	   -657.19225969	     16.86757167	   -179.99999979	   1806.75410437	    -71.38363037	     20.07307034	      9.24252233	     11.87039731	    -45.00000000	    -35.45982505	     45.00000000	    -45.00000000	     96.53861309	  -2616.84556572	    145.05854608	    136.96875243	   1091.89359703	   -317.56624567	      6.30542982	    -21.68206406
      3.52000000	     40.96552532	      2.97818014	      9.63589437	   -186.07101682	    857.93293253	     -8.74433624	      2.94351489	     43.96029256	     45.00000000	     45.00000000	      8.36638835	   1326.70995197	   -656.97112533	     16.64867592	   -179.99999979	   1806.62359068	    -70.10191239	     20.19088451	      9.05256759	     11.96205066	    -45.00000000	    -35.64906183	     45.00000000	    -45.00000000	     96.61067783	  -2616.87859215	    144.96480955	    137.24861392	   1091.87977039	   -316.95672421	      6.20295696	    -21.64215326
      3.53000000	     41.00669521	      2.94232052	      9.46260351	   -185.47844363	    858.58970353	     -8.76657835	      2.99649899	     44.22772999	     45.00000000	     45.00000000	      8.70229640	   1326.53224804	   -656.94695645	     16.88921214	   -179.99999979	   1806.72727640	    -68.89776438	     20.27374496	      8.98149999	     11.99225619	    -45.00000000	    -35.79190542	     45.00000000	    -45.00000000	     96.46122205	  -2616.80469350	    144.89107505	    137.36817880	   1091.92439631	   -316.39274543	      6.12824102	    -21.65187589
      3.54000000	     40.87389265	      2.87827456	      9.31720170	   -184.88703155	    859.39183111	     -8.78393940	      2.93742651	     44.25918758	     45.00000000	     45.00000000	      9.69169265	   1325.97843080	   -656.88119406	     17.07671778	   -179.99999979	   1806.81647393	    -67.19547352	     20.33149968	      8.87026650	     11.85952044	    -45.00000000	    -35.69675577	     45.00000000	    -45.00000000	     96.35131744	  -2616.33439853	    144.80045447	    137.72618355	   1092.12548326	   -315.67443687	      6.01264859	    -21.69166959
      3.55000000	     40.83965953	      2.83719190	      9.28784969	   -184.28370765	    860.35161535	     -8.79018077	      2.54548582	     43.54536487	     45.00000000	     45.00000000	      9.38635291	   1326.71415434	   -656.75606565	     16.61683460	   -179.99999979	   1806.53335947	    -66.10137682	     20.66663880	      8.51706726	     12.19767722	    -45.00000000	    -36.17209565	     45.00000000	    -45.00000000	     96.72551029	  -2616.54859002	    144.45457996	    138.33508881	   1092.09934649	   -315.23389419	      5.80918182	    -21.52747170
      3.56000000	     40.85495543	      2.65977341	      9.05838797	   -183.64595869	    861.48841436	     -8.78169601	      2.84199674	     43.69482984	     45.00000000	     45.00000000	      9.85456254	   1326.31280550	   -656.81771877	     17.13715316	   -179.99999979	   1806.70655914	    -65.17741055	     20.68173782	      8.51234284	     12.10823627	    -45.00000000	    -36.20599325	     45.00000000	    -45.00000000	     96.53085607	  -2616.24955379	    144.41636925	    138.53902195	   1092.28261925	   -314.78076981	      5.83718501	    -21.69301449
      3.57000000	     40.74863148	      2.74847444	      9.13332521	   -182.94830589	    862.79623889	     -8.76877216	      2.45182004	     43.80496394	     45.00000000	     45.00000000	     10.07957520	   1326.56810535	   -656.58212653	     16.83653048	   -179.99999979	   1806.55128186	    -64.23601290	     20.86325383	      8.29454297	     12.18567775	    -45.00000000	    -36.34677218	     45.00000000	    -45.00000000	     96.59413373	  -2616.10134099	    144.28220710	    138.89049765	   1092.27327554	   -314.29043295	      5.68941833	    -21.61021523
      3.58000000	     40.73504781	      2.67718587	      8.99631562	   -182.17712742	    864.26765854	     -8.75054911	      2.72136269	     44.04903103	     45.00000000	     45.00000000	     10.73250350	   1326.05241255	   -656.52569538	     17.40946891	   -179.99999979	   1806.77543187	    -63.23131658	     20.92766527	      8.27838683	     12.01447691	    -45.00000000	    -36.30604773	     45.00000000	    -45.00000000	     96.48428181	  -2615.62759818	    144.19857316	    139.16610460	   1092.51970202	   -313.70697593	      5.58464727	    -21.67419584
      3.59000000	     40.73664414	      2.57477717	      8.80118917	   -181.30194712	    865.90244222	     -8.73769285	      2.57196104	     43.99994755	     45.00000000	     45.00000000	     11.24700983	   1326.00039787	   -656.39301353	     17.56461288	   -179.99999979	   1806.79248299	    -62.26755302	     21.02997217	      8.16244518	     12.11786644	    -45.00000000	    -36.58112199	     45.00000000	    -45.00000000	     96.46428396	  -2615.45705441	    144.00446150	    139.59088132	   1092.60847549	   -313.06340280	      5.47744937	    -21.68164211
      3.60000000	     40.70798932	      2.53237571	      8.71707740	   -180.31216530	    867.69353397	     -8.72890216	      2.47881289	     43.94904489	     45.00000000	     45.00000000	     11.46365961	   1326.06558210	   -656.26994700	     17.69501619	   -179.99999979	   1806.75380651	    -61.53708639	     21.22339158	      7.99221064	     12.20857592	    -45.00000000	    -36.76800530	     45.00000000	    -45.00000000	     96.53855105	  -2615.20523108	    143.78900670	    140.14258870	   1092.75162400	   -312.45284744	      5.34909431	    -21.69279775
      3.61000000	     40.64636900	      2.52104016	      8.67935737	   -179.20174158	    869.62598994	     -8.72309980	      2.37116005	     43.84090488	     45.00000000	     45.00000000	     11.58959584	   1326.24301624	   -656.19511539	     17.73733779	   -179.99999979	   1806.67422368	    -61.03134567	     21.46583424	      7.80852138	     12.25708781	    -45.00000000	    -36.88586112	     45.00000000	    -45.00000000	     96.62360078	  -2614.89113413	    143.52168246	    140.70494942	   1092.89579255	   -311.87234186	      5.18521094	    -21.66180595
      3.62000000	     40.63592291	      2.21993525	      8.01591835	   -177.97493236	    871.69145500	     -8.70900886	      2.06509983	     43.50231611	     45.00000000	     45.00000000	     14.48312770	   1325.79690028	   -655.34672132	     17.58143448	   -179.99999979	   1806.89971313	    -59.99407484	     21.06484033	      8.11551297	     12.37410145	    -45.00000000	    -37.60743709	     45.00000000	    -45.00000000	     96.41437453	  -2614.68721670	    143.22029890	    141.55111401	   1093.02368834	   -310.92010109	      4.91611406	    -21.49655417
      3.63000000	     40.57537093	      2.06250366	      7.74340504	   -176.62893416	    873.87196235	     -8.68728225	      1.49103224	     43.26329022	     45.00000000	     45.00000000	     15.91869511	   1325.74697123	   -654.83652520	     17.58174521	   -179.99999979	   1806.95887471	    -58.60574076	     21.34489496	      7.93606777	     12.51091943	    -45.00000000	    -37.79436396	     45.00000000	    -45.00000000	     96.48690756	  -2614.33294730	    142.81351913	    142.73792276	   1093.16532047	   -309.94660686	      4.70103078	    -21.41829011
      3.64000000	     40.56487677	      2.18867635	      7.90746769	   -175.16517596	    876.14475665	     -8.65875735	      1.88018908	     43.57146904	     45.00000000	     45.00000000	     14.22182468	   1325.97140835	   -655.50046128	     18.21647653	   -179.99999979	   1806.71214769	    -58.21578133	     21.83153857	      7.52516556	     12.50650916	    -45.00000000	    -37.95614528	     45.00000000	    -45.00000000	     96.55975166	  -2614.04530273	    142.68898501	    143.16814325	   1093.24830267	   -309.39790731	      4.74866101	    -21.62551168
      3.65000000	     40.51122778	      2.20871121	      7.91038894	   -173.58190420	    878.48869945	     -8.62307594	      1.85184636	     43.53548147	     45.00000000	     45.00000000	     14.19409384	   1326.23183931	   -655.44768431	     18.36386973	   -179.99999979	   1806.57710476	    -58.16354050	     22.12900155	      7.38506191	     12.62664609	    -45.00000000	    -38.15864305	     45.00000000	    -45.00000000	     96.68515203	  -2613.68804156	    142.45061983	    143.55138042	   1093.41335942	   -308.90696322	      4.57539118	    -21.57051968
      3.66000000	     40.45068855	      2.19734389	      7.89041702	   -171.88428099	    880.86752224	     -8.58048214	      1.70195446	     43.49677262	     45.00000000	     45.00000000	     14.17897009	   1326.59267446	   -655.40599016	     18.37826867	   -179.99999979	   1806.42121877	    -58.18633041	     22.46809821	      7.23044200	     12.69628235	    -45.00000000	    -38.16499799	     45.00000000	    -44.63668770	     96.87499690	  -2613.27603259	    142.19904663	    144.34905905	   1093.61058405	   -308.49193563	      4.41563040	    -21.53653562
      3.67000000	     40.34215621	      1.40271809	      6.23334627	   -170.06599502	    883.25831376	     -8.53253986	      0.62855120	     42.75619014	     45.00000000	     45.00000000	     20.51426715	   1325.52972230	   -653.63495289	     17.92577806	   -179.99999979	   1806.91796211	    -57.33529448	     21.65320402	      8.06439883	     12.99616205	    -45.00000000	    -39.81448937	     45.00000000	    -42.28263788	     96.80502449	  -2613.37447377	    142.17911056	    145.41148812	   1093.58838322	   -307.69747798	      4.23187955	    -21.37197887
      3.68000000	     40.28428293	      0.83375516	      5.39134201	   -168.12062042	    885.63364906	     -8.48186218	     -0.39909894	     42.47127395	     45.00000000	     45.00000000	     22.61491780	   1325.28200024	   -653.37836408	     18.07842301	   -179.99999979	   1806.93239671	    -55.42286964	     22.21649944	      7.62676489	     12.97504131	    -45.00000000	    -40.34811547	     45.00000000	    -40.44516186	     96.94964337	  -2613.14957850	    142.11085026	    145.56688991	   1093.70071988	   -306.92074565	      4.19110718	    -21.48354000
      3.69000000	     40.18932279	      0.78383508	      5.10195711	   -166.05091641	    887.95613448	     -8.43205656	     -0.02688445	     42.30506426	     45.00000000	     45.00000000	     23.75205567	   1325.28163700	   -653.15658418	     18.11503375	   -179.99999979	   1806.89517140	    -54.28971519	     22.05130623	      7.63685612	     13.02182447	    -45.00000000	    -40.94908686	     45.00000000	    -39.42722524	     97.07035312	  -2612.92999031	    142.10790410	    145.82439065	   1093.79877764	   -306.45427412	      4.01198338	    -21.34353282
      3.70000000	     40.11787908	      0.49799026	      4.61753575	   -163.84642203	    890.20240586	     -8.38586940	     -0.42046045	     42.07296139	     45.00000000	     45.00000000	     25.26447494	   1325.20739158	   -652.92828831	     18.27444598	   -179.99999979	   1806.94473943	    -53.40947146	     22.24889828	      7.49368097	     13.10412507	    -45.00000000	    -41.51268726	     45.00000000	    -37.98666373	     97.31894558	  -2612.74609198	    142.03828237	    146.11730318	   1093.87902927	   -306.09611111	      3.93509070	    -21.33387906
      3.71000000	     40.02746095	      0.13392032	      3.81112445	   -161.51123908	    892.33627267	     -8.34492516	     -1.27347954	     41.77478438	     45.00000000	     45.00000000	     27.54292904	   1324.83327382	   -652.54044635	     18.30803998	   -179.99999979	   1806.80479609	    -52.38686141	     22.41390984	      7.29798180	     13.19849550	    -45.00000000	    -42.35017192	     45.00000000	    -36.19666215	     97.41657154	  -2612.54729619	    142.02373985	    146.24057664	   1093.92781814	   -305.81398403	      3.92601981	    -21.40614450
